<?xml version="1.0" encoding="UTF-8"?>
<svg xmlns="http://www.w3.org/2000/svg" xmlns:xlink="http://www.w3.org/1999/xlink" width="419.25pt" height="297.75pt" viewBox="0 0 419.25 297.75" version="1.2">
<defs>
<clipPath id="clip1">
  <path d="M 0 0.140625 L 418.5 0.140625 L 418.5 297.359375 L 0 297.359375 Z M 0 0.140625 "/>
</clipPath>
<clipPath id="clip2">
  <path d="M 123.1875 92 L 277.570312 92 L 277.570312 244.476562 L 123.1875 244.476562 Z M 123.1875 92 "/>
</clipPath>
<clipPath id="clip3">
  <path d="M 145.355469 182.101562 L 207.898438 182.101562 L 207.898438 244.476562 L 145.355469 244.476562 Z M 145.355469 182.101562 "/>
</clipPath>
<clipPath id="clip4">
  <path d="M 82.808594 53.433594 L 168 53.433594 L 168 139 L 82.808594 139 Z M 82.808594 53.433594 "/>
</clipPath>
<clipPath id="clip5">
  <path d="M 251 57 L 336.15625 57 L 336.15625 143 L 251 143 Z M 251 57 "/>
</clipPath>
</defs>
<g id="surface1">
<g clip-path="url(#clip1)" clip-rule="nonzero">
<path style=" stroke:none;fill-rule:nonzero;fill:rgb(100%,100%,100%);fill-opacity:1;" d="M 0 0.140625 L 418.996094 0.140625 L 418.996094 297.710938 L 0 297.710938 Z M 0 0.140625 "/>
<path style=" stroke:none;fill-rule:nonzero;fill:rgb(100%,100%,100%);fill-opacity:1;" d="M 0 0.140625 L 418.996094 0.140625 L 418.996094 297.710938 L 0 297.710938 Z M 0 0.140625 "/>
</g>
<g clip-path="url(#clip2)" clip-rule="nonzero">
<path style=" stroke:none;fill-rule:nonzero;fill:rgb(94.509888%,35.688782%,15.289307%);fill-opacity:1;" d="M 273.816406 182.855469 L 269.371094 187.3125 C 271.820312 189.773438 271.820312 193.769531 269.371094 196.222656 C 266.921875 198.683594 262.933594 198.683594 260.480469 196.222656 L 224.925781 160.574219 C 223.699219 159.34375 221.707031 159.34375 220.480469 160.574219 C 219.253906 161.808594 219.253906 163.800781 220.480469 165.03125 L 256.035156 200.683594 L 260.480469 205.140625 C 262.933594 207.59375 262.933594 211.59375 260.480469 214.050781 C 258.03125 216.507812 254.042969 216.507812 251.59375 214.050781 L 211.589844 173.945312 C 210.363281 172.714844 208.375 172.714844 207.144531 173.945312 C 205.917969 175.175781 205.917969 177.171875 207.144531 178.402344 L 247.148438 218.507812 C 249.597656 220.964844 249.597656 224.964844 247.148438 227.421875 C 244.699219 229.875 240.710938 229.875 238.261719 227.421875 L 233.8125 222.964844 L 198.257812 187.3125 C 197.03125 186.082031 195.042969 186.082031 193.8125 187.3125 C 192.582031 188.542969 192.582031 190.539062 193.8125 191.769531 L 229.371094 227.421875 C 231.820312 229.875 231.820312 233.875 229.371094 236.332031 C 226.917969 238.792969 222.929688 238.792969 220.480469 236.332031 L 149.484375 165.15625 C 149.386719 165.054688 140.511719 155.058594 131.066406 138.816406 L 171.078125 98.699219 L 187.414062 100.1875 C 190.5 97.210938 194.507812 95.34375 198.785156 94.953125 L 198.996094 94.933594 L 170.023438 92.320312 L 168.628906 92.246094 L 123.230469 137.761719 L 124.40625 139.847656 C 134.640625 157.945312 144.394531 168.910156 144.921875 169.488281 L 216.035156 240.789062 C 220.9375 245.707031 228.910156 245.707031 233.8125 240.789062 C 235.644531 238.957031 236.789062 236.695312 237.253906 234.324219 C 241.929688 236.574219 247.722656 235.757812 251.59375 231.875 C 254.246094 229.21875 255.460938 225.65625 255.246094 222.167969 C 258.722656 222.386719 262.273438 221.167969 264.929688 218.507812 C 268.800781 214.628906 269.609375 208.820312 267.367188 204.132812 C 269.734375 203.664062 271.984375 202.515625 273.816406 200.683594 C 278.71875 195.769531 278.71875 187.773438 273.816406 182.855469 "/>
</g>
<path style=" stroke:none;fill-rule:nonzero;fill:rgb(94.509888%,35.688782%,15.289307%);fill-opacity:1;" d="M 269.371094 169.488281 L 264.929688 173.945312 L 231.59375 140.523438 L 214.734375 123.617188 L 212.894531 121.777344 L 201.398438 121.777344 L 178.257812 144.980469 C 175.804688 147.433594 171.816406 147.433594 169.367188 144.980469 C 166.917969 142.523438 166.917969 138.523438 169.367188 136.066406 L 196.035156 109.328125 C 197.074219 108.289062 198.449219 107.644531 199.910156 107.511719 L 223.230469 105.402344 L 231.386719 104.664062 L 247.691406 103.191406 L 287.671875 143.273438 C 278.234375 159.5 269.371094 169.488281 269.371094 169.488281 Z M 250.339844 96.699219 L 199.34375 101.226562 C 196.417969 101.496094 193.667969 102.789062 191.589844 104.871094 L 164.921875 131.609375 C 160.019531 136.527344 160.019531 144.519531 164.921875 149.433594 C 169.824219 154.347656 177.800781 154.347656 182.703125 149.433594 L 204.003906 128.078125 L 210.289062 128.078125 L 264.929688 182.855469 L 273.933594 173.820312 C 274.34375 173.367188 284.097656 162.40625 294.328125 144.304688 L 295.507812 142.214844 L 251.101562 97.691406 L 250.339844 96.699219 "/>
<g clip-path="url(#clip3)" clip-rule="nonzero">
<path style=" stroke:none;fill-rule:nonzero;fill:rgb(94.509888%,35.688782%,15.289307%);fill-opacity:1;" d="M 193.8125 236.332031 C 191.359375 233.875 191.359375 229.875 193.8125 227.421875 L 189.367188 222.964844 L 184.921875 227.421875 C 182.472656 229.875 178.484375 229.875 176.035156 227.421875 C 173.585938 224.964844 173.585938 220.964844 176.035156 218.507812 L 180.476562 214.050781 L 176.035156 209.59375 L 171.589844 214.050781 C 169.136719 216.507812 165.152344 216.507812 162.699219 214.050781 C 160.25 211.59375 160.25 207.59375 162.699219 205.140625 L 167.144531 200.683594 L 162.699219 196.222656 C 160.25 198.683594 156.257812 198.683594 153.808594 196.222656 C 151.359375 193.769531 151.359375 189.773438 153.808594 187.3125 L 149.367188 182.855469 C 144.460938 187.773438 144.460938 195.769531 149.367188 200.683594 C 151.210938 202.53125 153.484375 203.683594 155.871094 204.140625 C 153.617188 208.832031 154.378906 214.621094 158.253906 218.507812 C 160.921875 221.183594 164.496094 222.351562 167.992188 222.113281 C 167.757812 225.621094 168.921875 229.199219 171.589844 231.875 C 175.464844 235.761719 181.238281 236.527344 185.917969 234.265625 C 186.375 236.65625 187.527344 238.941406 189.367188 240.789062 C 194.269531 245.707031 202.242188 245.707031 207.144531 240.789062 L 202.703125 236.332031 C 200.253906 238.792969 196.261719 238.792969 193.8125 236.332031 "/>
</g>
<g clip-path="url(#clip4)" clip-rule="nonzero">
<path style=" stroke:none;fill-rule:nonzero;fill:rgb(94.509888%,35.688782%,15.289307%);fill-opacity:1;" d="M 91.699219 106.984375 L 136.144531 62.421875 L 158.367188 84.703125 L 113.921875 129.265625 Z M 136.144531 53.507812 L 82.808594 106.984375 L 113.921875 138.179688 L 167.261719 84.703125 L 136.144531 53.507812 "/>
</g>
<g clip-path="url(#clip5)" clip-rule="nonzero">
<path style=" stroke:none;fill-rule:nonzero;fill:rgb(94.509888%,35.688782%,15.289307%);fill-opacity:1;" d="M 260.597656 89.160156 L 282.820312 66.878906 L 327.269531 111.441406 L 305.042969 133.722656 Z M 282.820312 57.964844 L 251.707031 89.160156 L 305.042969 142.636719 L 336.15625 111.441406 L 282.820312 57.964844 "/>
</g>
<path style=" stroke:none;fill-rule:nonzero;fill:rgb(94.509888%,35.688782%,15.289307%);fill-opacity:1;" d="M 111.703125 113.667969 C 110.472656 114.898438 110.472656 116.894531 111.703125 118.125 C 112.929688 119.355469 114.917969 119.355469 116.144531 118.125 C 117.375 116.894531 117.375 114.898438 116.144531 113.667969 C 114.917969 112.4375 112.929688 112.4375 111.703125 113.667969 "/>
<path style=" stroke:none;fill-rule:nonzero;fill:rgb(94.509888%,35.688782%,15.289307%);fill-opacity:1;" d="M 307.265625 118.125 C 306.042969 116.894531 304.050781 116.894531 302.820312 118.125 C 301.59375 119.355469 301.59375 121.351562 302.820312 122.582031 C 304.050781 123.8125 306.042969 123.8125 307.265625 122.582031 C 308.492188 121.351562 308.492188 119.355469 307.265625 118.125 "/>
</g>
</svg>
