<svg width="39" height="39" viewBox="0 0 39 39" fill="none" xmlns="http://www.w3.org/2000/svg">
<path d="M32.5 14.1212V6.49997H24.8787L19.5 1.12122L14.1212 6.49997H6.49997V14.1212L1.12122 19.5L6.49997 24.8787V32.5H14.1212L19.5 37.8787L24.8787 32.5H32.5V24.8787L37.8787 19.5L32.5 14.1212ZM19.5 29.25C18.0537 29.25 16.6725 28.925 15.4375 28.3562C18.785 26.8125 21.125 23.4325 21.125 19.5C21.125 15.5675 18.785 12.1875 15.4375 10.6437C16.6725 10.075 18.0537 9.74996 19.5 9.74996C24.8787 9.74996 29.25 14.1212 29.25 19.5C29.25 24.8787 24.8787 29.25 19.5 29.25Z" fill="#657285"/>
</svg>
