<svg width="30" height="31" viewBox="0 0 30 31" fill="none" xmlns="http://www.w3.org/2000/svg">
<path d="M25.0125 19.725C23.475 19.725 21.9875 19.475 20.6 19.025C20.1625 18.875 19.675 18.9875 19.3375 19.325L17.375 21.7875C13.8375 20.1 10.525 16.9125 8.7625 13.25L11.2 11.175C11.5375 10.825 11.6375 10.3375 11.5 9.9C11.0375 8.5125 10.8 7.025 10.8 5.4875C10.8 4.8125 10.2375 4.25 9.5625 4.25H5.2375C4.5625 4.25 3.75 4.55 3.75 5.4875C3.75 17.1 13.4125 26.75 25.0125 26.75C25.9 26.75 26.25 25.9625 26.25 25.275V20.9625C26.25 20.2875 25.6875 19.725 25.0125 19.725Z" fill="white"/>
</svg>
