<svg width="46" height="46" viewBox="0 0 46 46" fill="none" xmlns="http://www.w3.org/2000/svg">
<g clip-path="url(#clip0)">
<path d="M45.5 23.137C45.5 10.7113 35.4256 0.636963 23 0.636963C10.5744 0.636963 0.5 10.7113 0.5 23.137C0.5 34.3682 8.7275 43.6757 19.4844 45.3632V29.6413H13.7712V23.1351H19.4844V18.1813C19.4844 12.5432 22.8444 9.42696 27.9837 9.42696C30.4438 9.42696 33.02 9.86759 33.02 9.86759V15.4045H30.1812C27.3856 15.4045 26.5138 17.1388 26.5138 18.9182V23.137H32.7537L31.7563 29.6432H26.5138V45.3651C37.2725 43.6757 45.5 34.3663 45.5 23.137Z" fill="white"/>
</g>
<defs>
<clipPath id="clip0">
<rect width="45" height="45" fill="white" transform="translate(0.5 0.5)"/>
</clipPath>
</defs>
</svg>
