<svg width="78" height="27" viewBox="0 0 78 27" fill="none" xmlns="http://www.w3.org/2000/svg">
<path d="M1.5 26L2.04348 24.1914C2.58696 22.3827 3.67391 18.7654 4.76087 15.9257C5.84783 13.086 6.93478 11.0239 8.02174 8.50615C9.1087 5.98835 10.1957 3.01483 11.2826 2.43731C12.3696 1.85979 13.4565 3.67827 14.5435 6.86441C15.6304 10.0505 16.7174 14.6043 17.8043 14.8795C18.8913 15.1547 19.9783 11.1512 21.0652 8.08247C22.1522 5.01369 23.2391 2.8796 24.3261 3.71767C25.413 4.55574 26.5 8.36598 27.587 10.6587C28.6739 12.9515 29.7609 13.7268 30.8478 14.284C31.9348 14.8411 33.0217 15.1802 34.1087 15.4107C35.1957 15.6411 36.2826 15.763 37.3696 14.4913C38.4565 13.2197 39.5435 10.5545 40.6304 11.4223C41.7174 12.2901 42.8043 16.6909 43.8913 17.2353C44.9783 17.7797 46.0652 14.4678 47.1522 14.131C48.2391 13.7941 49.3261 16.4323 50.413 14.1836C51.5 11.9349 52.587 4.79927 53.6739 2.7231C54.7609 0.64693 55.8478 3.63022 56.9348 4.33759C58.0217 5.04496 59.1087 3.4764 60.1957 2.96349C61.2826 2.45058 62.3696 2.99332 63.4565 4.26901C64.5435 5.5447 65.6304 7.55336 66.7174 9.37042C67.8044 11.1875 68.8913 12.813 69.9783 13.2629C71.0652 13.7129 72.1522 12.9874 73.2391 12.1645C74.3261 11.3417 75.413 10.4216 75.9565 9.96159L76.5 9.50154" stroke="#7FDA89" stroke-width="3"/>
</svg>
