<svg width="210" height="35" viewBox="0 0 210 35" fill="none" xmlns="http://www.w3.org/2000/svg">
<path d="M1 17.5L2.48571 17.5124L3.97143 17.5281L5.45714 17.5458L6.94286 17.5636L8.42857 17.5787L9.91429 17.588L11.4 17.5877L12.8857 17.5745L14.3714 17.5457L15.8571 17.5L17.3429 17.4384L18.8286 17.3643L20.3143 17.2843L21.8 17.208L23.2857 17.1472L24.7714 17.1155L26.2571 17.1261L27.7429 17.1903L29.2286 17.3148L30.7143 17.5L32.2 17.7378L33.6857 18.0106L35.1714 18.2915L36.6571 18.5451L38.1429 18.7313L39.6286 18.8088L41.1143 18.7412L42.6 18.5029L44.0857 18.0849L45.5714 17.5L47.0571 16.7856L48.5429 16.0038L50.0286 15.2383L51.5143 14.5872L53 14.153L54.4857 14.0301L55.9714 14.2905L57.4571 14.9708L58.9429 16.0614L60.4286 17.5L61.9143 19.1714L63.4 20.9141L64.8857 22.5335L66.3714 23.8225L67.8571 24.5855L69.3429 24.6644L70.8286 23.9631L72.3143 22.4675L73.8 20.2558L75.2857 17.5L76.7714 14.4544L78.2571 11.4327L79.7429 8.77568L81.2286 6.81203L82.7143 5.81799L84.2 5.97961L85.6857 7.36378L87.1714 9.90184L88.6571 13.3889L90.1429 17.5L91.6286 21.8219L93.1143 25.8973L94.6 29.2766L96.0857 31.571L97.5714 32.5L99.0571 31.9272L100.543 29.8804L102.029 26.5513L103.514 22.2764L105 17.5L106.486 12.7236L107.971 8.44872L109.457 5.1196L110.943 3.07276L112.429 2.5L113.914 3.42897L115.4 5.7234L116.886 9.10273L118.371 13.1781L119.857 17.5L121.343 21.6111L122.829 25.0982L124.314 27.6362L125.8 29.0204L127.286 29.182L128.771 28.188L130.257 26.2243L131.743 23.5673L133.229 20.5456L134.714 17.5L136.2 14.7442L137.686 12.5326L139.171 11.0369L140.657 10.3356L142.143 10.4145L143.629 11.1775L145.114 12.4665L146.6 14.0859L148.086 15.8286L149.571 17.5L151.057 18.9386L152.543 20.0292L154.029 20.7095L155.514 20.9699L157 20.847L158.486 20.4128L159.971 19.7617L161.457 18.9962L162.943 18.2144L164.429 17.5L165.914 16.9151L167.4 16.4971L168.886 16.2588L170.371 16.1912L171.857 16.2687L173.343 16.4549L174.829 16.7085L176.314 16.9894L177.8 17.2622L179.286 17.5L180.771 17.6852L182.257 17.8097L183.743 17.8739L185.229 17.8845L186.714 17.8528L188.2 17.792L189.686 17.7157L191.171 17.6357L192.657 17.5616L194.143 17.5L195.629 17.4543L197.114 17.4255L198.6 17.4123L200.086 17.412L201.571 17.4213L203.057 17.4364L204.543 17.4542L206.029 17.4719L207.514 17.4876L209 17.5" stroke="#F15A24" stroke-width="3"/>
</svg>
