<svg width="40" height="40" viewBox="0 0 40 40" fill="none" xmlns="http://www.w3.org/2000/svg">
<path d="M19.9998 36.6666C21.8332 36.6666 23.3332 35.1666 23.3332 33.3333H16.6665C16.6665 35.1666 18.1665 36.6666 19.9998 36.6666ZM29.9998 26.6666V18.3333C29.9998 13.2166 27.2832 8.93329 22.4998 7.79996V6.66663C22.4998 5.28329 21.3832 4.16663 19.9998 4.16663C18.6165 4.16663 17.4998 5.28329 17.4998 6.66663V7.79996C12.7332 8.93329 9.99984 13.2 9.99984 18.3333V26.6666L6.6665 30V31.6666H33.3332V30L29.9998 26.6666ZM26.6665 28.3333H13.3332V18.3333C13.3332 14.2 15.8498 10.8333 19.9998 10.8333C24.1498 10.8333 26.6665 14.2 26.6665 18.3333V28.3333Z" fill="white"/>
</svg>
