<svg width="46" height="46" viewBox="0 0 46 46" fill="#f15a24" xmlns="http://www.w3.org/2000/svg">
<g clip-path="url(#clip0)">
<path d="M23 0.5C16.8875 0.5 16.1244 0.528125 13.7244 0.635C11.3281 0.7475 9.69687 1.12437 8.2625 1.68125C6.78312 2.255 5.52688 3.02562 4.27625 4.27625C3.02562 5.52688 2.25312 6.78125 1.68125 8.2625C1.12437 9.69687 0.745625 11.3281 0.635 13.7244C0.5225 16.1244 0.5 16.8875 0.5 23C0.5 29.1125 0.528125 29.8756 0.635 32.2756C0.7475 34.67 1.12437 36.3031 1.68125 37.7375C2.255 39.215 3.02562 40.4731 4.27625 41.7238C5.52688 42.9725 6.78125 43.7469 8.2625 44.3188C9.69875 44.8738 11.33 45.2544 13.7244 45.365C16.1244 45.4775 16.8875 45.5 23 45.5C29.1125 45.5 29.8756 45.4719 32.2756 45.365C34.67 45.2525 36.3031 44.8738 37.7375 44.3188C39.215 43.745 40.4731 42.9725 41.7238 41.7238C42.9725 40.4731 43.7469 39.2206 44.3188 37.7375C44.8738 36.3031 45.2544 34.67 45.365 32.2756C45.4775 29.8756 45.5 29.1125 45.5 23C45.5 16.8875 45.4719 16.1244 45.365 13.7244C45.2525 11.33 44.8738 9.695 44.3188 8.2625C43.745 6.78312 42.9725 5.52688 41.7238 4.27625C40.4731 3.02562 39.2206 2.25312 37.7375 1.68125C36.3031 1.12437 34.67 0.745625 32.2756 0.635C29.8756 0.5225 29.1125 0.5 23 0.5ZM23 4.55C29.0056 4.55 29.7219 4.58 32.0938 4.68313C34.2875 4.78625 35.4781 5.15 36.2694 5.46125C37.3231 5.86812 38.0694 6.35563 38.8606 7.14125C39.6462 7.92875 40.1338 8.67688 40.5406 9.73063C40.8481 10.5219 41.2156 11.7125 41.315 13.9062C41.4219 16.28 41.4462 16.9925 41.4462 23C41.4462 29.0075 41.4181 29.7219 41.3075 32.0938C41.1931 34.2875 40.8275 35.4781 40.5181 36.2694C40.0981 37.3231 39.62 38.0694 38.8325 38.8606C38.0469 39.6462 37.2875 40.1338 36.245 40.5406C35.4575 40.8481 34.2481 41.2156 32.0544 41.315C29.6656 41.4219 28.9625 41.4462 22.9438 41.4462C16.9231 41.4462 16.22 41.4181 13.8331 41.3075C11.6375 41.1931 10.4281 40.8275 9.64062 40.5181C8.57375 40.0981 7.84063 39.62 7.055 38.8325C6.26562 38.0469 5.76125 37.2875 5.3675 36.245C5.05813 35.4575 4.69438 34.2481 4.58 32.0544C4.49563 29.6919 4.46563 28.9625 4.46563 22.9719C4.46563 16.9794 4.49563 16.2481 4.58 13.8575C4.69438 11.6638 5.05813 10.4563 5.3675 9.66875C5.76125 8.6 6.26562 7.86875 7.055 7.07938C7.84063 6.29375 8.57375 5.7875 9.64062 5.39563C10.4281 5.08437 11.6113 4.71875 13.805 4.60625C16.1956 4.52187 16.8988 4.49375 22.9156 4.49375L23 4.55ZM23 11.4462C16.6156 11.4462 11.4462 16.6213 11.4462 23C11.4462 29.3844 16.6213 34.5538 23 34.5538C29.3844 34.5538 34.5538 29.3787 34.5538 23C34.5538 16.6156 29.3787 11.4462 23 11.4462ZM23 30.5C18.8563 30.5 15.5 27.1437 15.5 23C15.5 18.8563 18.8563 15.5 23 15.5C27.1437 15.5 30.5 18.8563 30.5 23C30.5 27.1437 27.1437 30.5 23 30.5ZM37.7113 10.9906C37.7113 12.4812 36.5 13.6906 35.0112 13.6906C33.5206 13.6906 32.3112 12.4794 32.3112 10.9906C32.3112 9.50187 33.5225 8.2925 35.0112 8.2925C36.4981 8.29063 37.7113 9.50187 37.7113 10.9906Z" fill="#f15a24"/>
</g>
<defs>
<clipPath id="clip0">
<rect width="45" height="45" fill="#f15a24" transform="translate(0.5 0.5)"/>
</clipPath>
</defs>
</svg>
