<svg width="42" height="43" viewBox="0 0 42 43" fill="none" xmlns="http://www.w3.org/2000/svg">
<path d="M27.125 25H25.7425L25.2525 24.5275C26.9675 22.5325 28 19.9425 28 17.125C28 10.8425 22.9075 5.75 16.625 5.75C10.3425 5.75 5.25 10.8425 5.25 17.125C5.25 23.4075 10.3425 28.5 16.625 28.5C19.4425 28.5 22.0325 27.4675 24.0275 25.7525L24.5 26.2425V27.625L33.25 36.3575L35.8575 33.75L27.125 25ZM16.625 25C12.2675 25 8.75 21.4825 8.75 17.125C8.75 12.7675 12.2675 9.25 16.625 9.25C20.9825 9.25 24.5 12.7675 24.5 17.125C24.5 21.4825 20.9825 25 16.625 25Z" fill="#657285"/>
</svg>
