<svg width="46" height="46" viewBox="0 0 46 46" fill="none" xmlns="http://www.w3.org/2000/svg">
<g clip-path="url(#clip0)">
<path d="M44.5588 12.0988C44.3045 11.1412 43.8032 10.2672 43.1049 9.56434C42.4066 8.86145 41.5359 8.35436 40.58 8.09385C37.0719 7.14697 23 7.14697 23 7.14697C23 7.14697 8.92812 7.14697 5.41812 8.09385C4.46264 8.35482 3.59243 8.8621 2.89452 9.56494C2.19662 10.2678 1.69548 11.1415 1.44125 12.0988C0.5 15.6313 0.5 23.0001 0.5 23.0001C0.5 23.0001 0.5 30.3688 1.44125 33.9013C1.69547 34.859 2.19683 35.733 2.89511 36.4359C3.59339 37.1387 4.46408 37.6458 5.42 37.9064C8.92813 38.8532 23 38.8532 23 38.8532C23 38.8532 37.0719 38.8532 40.5819 37.9064C41.5379 37.646 42.4087 37.139 43.107 36.4361C43.8053 35.7331 44.3066 34.859 44.5606 33.9013C45.5 30.3688 45.5 23.0001 45.5 23.0001C45.5 23.0001 45.5 15.6313 44.5588 12.0988ZM18.3969 29.6901V16.3101L30.1588 23.0001L18.3969 29.6901Z" fill="white"/>
</g>
<defs>
<clipPath id="clip0">
<rect width="45" height="45" fill="white" transform="translate(0.5 0.5)"/>
</clipPath>
</defs>
</svg>
